# xmcd
#
# Track frame offsets: 
#        150
#        17706
#        41135
#        56153
#        72433
#        92923
#        111299
#        127772
#        146387
#        171868
#        190792
#        207935
#        225106
#        246621
#        265570
#
# Disc length: 3747 seconds
#
# Revision: 1
# Processed by: cddbd v1.5.2PL0 Copyright (c) Steve Scherf et al.
# Submitted via: ExactAudioCopy v0.99pb4
#
DISCID=d10ea10f
DTITLE=Various Artist - R&B Sessions 2 DISC2
DYEAR=2005
DGENRE=R&B
TTITLE0=Jay Dee feat. Dwelle - Think Twice
TTITLE1=Jazzyfatnastees - Show Your Face
TTITLE2=Pete Rock feat. Leela James - No Tears
TTITLE3=Goapele feat. Pep Love - Ease Your Mind
TTITLE4=Reggie Watts - Movin' On
TTITLE5=Avani - Don't You Worry
TTITLE6=Larry Gold feat. Wanda - Feel So Good
TTITLE7=Platinum Pied Pipers - Open Your Eyes
TTITLE8=The Foreign Exchange - Nic's Groove
TTITLE9=Will.I.Am feat. Terry Dexter - Lay Me Down
TTITLE10=Alice Russell - Taking Hold
TTITLE11=Hil St. Soul - Just A Matter Of Time
TTITLE12=Full Flava feat. Carleen Anderson - Stories
TTITLE13=Cooly's Hot Box - Don't Be Afraid
TTITLE14=Rahsaan Patterson - The One For Me
EXTD=
EXTT0=
EXTT1=
EXTT2=
EXTT3=
EXTT4=
EXTT5=
EXTT6=
EXTT7=
EXTT8=
EXTT9=
EXTT10=
EXTT11=
EXTT12=
EXTT13=
EXTT14=
PLAYORDER=
